<svg width="1200" height="1386" viewBox="0 0 1200 1386" fill="none" xmlns="http://www.w3.org/2000/svg">
<path d="M600 0L1200 346.41V1039.23L600 1385.64L0 1039.23V346.41L600 0Z" fill="#00BBCC"/>
<path d="M687.586 462.752C713.036 437.302 754.826 437.053 775.75 466.338C823.306 532.896 849.35 613.082 849.35 695.953C849.35 778.824 823.306 859.01 775.75 925.568C754.826 954.853 713.036 954.604 687.586 929.154C662.136 903.704 663 862.696 681.477 831.809C705.836 791.089 719.012 744.2 719.012 695.953C719.012 647.706 705.836 600.817 681.477 560.097C663 529.21 662.136 488.202 687.586 462.752Z" fill="white"/>
<path d="M599.282 624C636.993 624 667.564 655.019 667.564 693.282C667.564 731.546 636.993 762.564 599.282 762.564C561.571 762.564 531 731.546 531 693.282C531 655.019 561.571 624 599.282 624Z" fill="white"/>
<path d="M511.764 922.154C486.314 947.604 444.524 947.853 423.6 918.568C376.044 852.01 350 771.824 350 688.953C350 606.082 376.044 525.896 423.6 459.338C444.524 430.053 486.314 430.302 511.764 455.752C537.214 481.202 536.35 522.21 517.873 553.097C493.514 593.817 480.338 640.706 480.338 688.953C480.338 737.2 493.514 784.089 517.873 824.809C536.35 855.696 537.214 896.704 511.764 922.154Z" fill="white"/>
</svg>
